#!OML:ASF H:\BreakDance\Project 1\Capture day 1\Session 1\Male.ASF
:FULLY-SPECIFIED
:DEGREES
1917
root -23.7418 5.38055 7.36251 -85.2103 -22.8899 536.064
lowerback 5.60492 5.30766 -11.5691
upperback 5.72803 6.32573 4.11853
thorax 1.20471 2.67942 10.5294
lowerneck -8.56569 12.0414 -5.32755
upperneck -14.1806 15.2074 -17.4395
head -2.1278 7.94318 -4.70057
rclavicle 1.90833e-014 -7.95139e-015
rhumerus -36.4712 0.116609 -89.1119
rradius 112.653
rwrist -8.70726
rhand -52.2939 -241.329
rfingers 7.12502
rthumb -24.7892 -212.916
lclavicle 1.90833e-014 -7.95139e-015
lhumerus 11.5241 -28.7924 54.7166
lradius 95.364
lwrist 19.9442
lhand -60.2641 466.559
lfingers 7.12502
lthumb -32.4032 280.566
rfemur -22.3677 3.17759 3.75859
rtibia 24.4209
rfoot -16.2019 8.01133
rtoes 4.49089
lfemur 300.901 36.6791 359.824
ltibia 81.38
lfoot -16.8893 -2.09696
ltoes -52.9269
1918
root -23.7001 5.38 7.39136 -86.1805 -23.4158 537.148
lowerback 4.98969 5.39382 -11.0456
upperback 5.58825 6.52371 4.19344
thorax 1.38328 2.78802 10.3365
lowerneck -8.51943 12.1428 -5.26326
upperneck -14.3738 15.2884 -17.4991
head -2.18646 7.98553 -4.74536
rclavicle 5.725e-014 1.43125e-014
rhumerus -35.8562 0.934619 -89.3327
rradius 110.93
rwrist -7.3746
rhand -51.6621 -241.032
rfingers 7.12502
rthumb -24.1836 -212.537
lclavicle 5.725e-014 1.43125e-014
lhumerus 11.1962 -28.9987 54.8512
lradius 94.3558
lwrist 20.2107
lhand -60.1714 466.665
lfingers 7.12502
lthumb -32.315 280.477
rfemur -22.9238 3.03025 4.91866
rtibia 25.9413
rfoot -16.7695 7.89518
rtoes 4.36017
lfemur 300.732 38.6923 358.008
ltibia 83.6293
lfoot -17.1142 -2.50084
ltoes -52.6829
1919
root -23.661 5.38714 7.42115 -87.1428 -23.979 538.119
lowerback 4.42383 5.43383 -10.4498
upperback 5.4611 6.64441 4.31671
thorax 1.57288 2.85598 10.1624
lowerneck -8.44181 12.2652 -5.18513
upperneck -14.5474 15.3975 -17.6421
head -2.23327 8.04486 -4.82114
rclavicle -6.36111e-014 -2.78299e-014
rhumerus -35.1761 1.76597 -89.4216
rradius 109.255
rwrist -6.32486
rhand -51.4424 -241.202
rfingers 7.12502
rthumb -23.9729 -212.679
lclavicle -6.36111e-014 -2.78299e-014
lhumerus 10.7663 -29.1395 55.079
lradius 93.3868
lwrist 20.4131
lhand -60.0807 466.497
lfingers 7.12502
lthumb -32.2286 280.663
rfemur -23.3313 2.78785 6.17626
rtibia 27.3218
rfoot -17.2731 7.63802
rtoes 3.92591
lfemur 300.74 40.5038 356.345
ltibia 85.8235
lfoot -17.447 -2.67469
ltoes -52.3613
1920
root -23.6197 5.40274 7.4499 -88.1195 -24.5459 538.969
lowerback 3.94762 5.42096 -9.87087
upperback 5.3542 6.67371 4.48062
thorax 1.75336 2.87513 10.0453
lowerneck -8.07546 12.4372 -4.90895
upperneck -15.1235 15.4374 -18.4245
head -2.09962 8.13772 -4.59515
rclavicle 2.38542e-014 -6.75868e-015
rhumerus -34.4033 2.56688 -89.4184
rradius 107.536
rwrist -5.59064
rhand -51.5389 -241.603
rfingers 7.12502
rthumb -24.0654 -213.092
lclavicle 2.38542e-014 -6.75868e-015
lhumerus 10.2321 -29.1696 55.3249
lradius 92.5006
lwrist 20.6775
lhand -59.9744 466.109
lfingers 7.12502
lthumb -32.1275 281.071
rfemur -23.5711 2.61136 7.46897
rtibia 28.5874
rfoot -17.7348 7.07519
rtoes 2.96723
lfemur 300.985 42.1334 354.842
ltibia 87.9332
lfoot -17.8088 -2.7501
ltoes -51.964
1921
root -23.5728 5.42653 7.47784 -89.0979 -25.061 539.693
lowerback 3.54061 5.38696 -9.44019
upperback 5.26662 6.65826 4.68115
thorax 1.90957 2.86716 10.0521
lowerneck -8.05811 12.6024 -4.87612
upperneck -15.0686 15.6519 -18.7027
head -2.04248 8.24722 -4.66944
rclavicle -2.22639e-014 -4.37326e-015
rhumerus -33.5613 3.27958 -89.3147
rradius 105.774
rwrist -5.07192
rhand -51.7729 -241.939
rfingers 7.12502
rthumb -24.2897 -213.458
lclavicle -2.22639e-014 -4.37326e-015
lhumerus 9.76536 -29.1836 55.6339
lradius 91.5594
lwrist 20.9473
lhand -59.8896 465.964
lfingers 7.12502
lthumb -32.0468 281.233
rfemur -23.6764 2.55805 8.72086
rtibia 29.7731
rfoot -18.1539 6.16456
rtoes 1.46624
lfemur 301.525 43.58 353.48
ltibia 89.9146
lfoot -18.114 -3.02541
ltoes -51.5966
1922
root -23.5206 5.45812 7.50389 -90.0521 -25.4648 540.203
lowerback 3.24395 5.33202 -9.20529
upperback 5.18751 6.60071 4.89092
thorax 2.00396 2.83622 10.1746
lowerneck -8.11937 12.7624 -4.83352
upperneck -14.7963 15.9024 -19.0472
head -1.89603 8.36286 -4.74483
rclavicle 1.59028e-015 -4.85035e-014
rhumerus -32.6471 3.81083 -89.1707
rradius 103.847
rwrist -4.50596
rhand -51.8989 -242.034
rfingers 7.12502
rthumb -24.4106 -213.569
lclavicle 1.59028e-015 -4.85035e-014
lhumerus 9.47393 -29.2473 56.0138
lradius 90.4786
lwrist 21.2364
lhand -59.8143 466.217
lfingers 7.12502
lthumb -31.975 280.993
rfemur -23.6271 2.52222 9.85853
rtibia 30.8933
rfoot -18.5128 4.98604
rtoes -0.340587
lfemur 302.395 44.7262 352.194
ltibia 91.7228
lfoot -18.3314 -3.67439
ltoes -51.2064
1923
root -23.4663 5.49675 7.52843 -90.9394 -25.753 540.422
lowerback 3.08251 5.24367 -9.11471
upperback 5.09468 6.48841 5.08721
thorax 2.00967 2.78125 10.3557
lowerneck -8.24517 12.8977 -4.76342
upperneck -14.3034 16.1643 -19.4037
head -1.66655 8.46896 -4.80923
rclavicle -1.43125e-014 2.06736e-014
rhumerus -31.6919 4.10495 -88.9932
rradius 101.761
rwrist -4.00542
rhand -51.9725 -242.171
rfingers 7.12502
rthumb -24.4811 -213.715
lclavicle -1.43125e-014 2.06736e-014
lhumerus 9.37935 -29.3984 56.4754
lradius 89.2084
lwrist 21.521
lhand -59.7221 467.094
lfingers 7.12502
lthumb -31.8872 280.135
rfemur -23.4338 2.37383 10.8577
rtibia 31.9606
rfoot -18.8163 3.66786
rtoes -2.1869
lfemur 303.59 45.4622 350.936
ltibia 93.3182
lfoot -18.3925 -4.53785
ltoes -50.8196
1924
root -23.4128 5.5406 7.55321 -91.7279 -25.9703 540.363
lowerback 3.01392 5.12316 -9.06896
upperback 4.97406 6.32916 5.26169
thorax 1.94444 2.70891 10.5318
lowerneck -8.44072 13.0044 -4.65623
upperneck -13.5748 16.4375 -19.7541
head -1.34967 8.56151 -4.85735
rclavicle -5.40694e-014 1.35174e-014
rhumerus -30.763 4.22066 -88.7975
rradius 99.623
rwrist -3.49492
rhand -51.8964 -242.269
rfingers 7.12502
rthumb -24.4082 -213.804
lclavicle -5.40694e-014 1.35174e-014
lhumerus 9.46736 -29.6499 57.0169
lradius 87.7447
lwrist 21.7609
lhand -59.6082 468.362
lfingers 7.12502
lthumb -31.7788 278.888
rfemur -23.15 2.02051 11.7496
rtibia 32.9694
rfoot -19.0624 2.32819
rtoes -3.83036
lfemur 305.066 45.7949 349.687
ltibia 94.678
lfoot -18.3054 -5.49451
ltoes -50.293
1925
root -23.364 5.58846 7.58085 -92.3728 -26.178 539.943
lowerback 3.04613 4.94127 -8.90981
upperback 4.82943 6.08339 5.40994
thorax 1.83274 2.60126 10.6085
lowerneck -8.67723 13.062 -4.49352
upperneck -12.7054 16.6729 -20.0643
head -0.984287 8.61821 -4.89167
rclavicle 1.11319e-013 -3.45885e-014
rhumerus -29.883 4.1875 -88.5713
rradius 97.514
rwrist -2.94297
rhand -51.893 -242.763
rfingers 7.12502
rthumb -24.4049 -214.297
lclavicle 1.11319e-013 -3.45885e-014
lhumerus 9.77821 -29.9906 57.6073
lradius 86.0548
lwrist 21.9542
lhand -59.4795 469.982
lfingers 7.12502
lthumb -31.6562 277.292
rfemur -22.784 1.33705 12.5646
rtibia 33.9255
rfoot -19.2478 1.02439
rtoes -4.87365
lfemur 306.729 45.6547 348.374
ltibia 95.7787
lfoot -18.1684 -6.2213
ltoes -49.7062
1926
root -23.3182 5.63914 7.61065 -92.8999 -26.4432 539.301
lowerback 3.10442 4.7212 -8.60553
upperback 4.67386 5.78618 5.55346
thorax 1.72073 2.47158 10.5958
lowerneck -8.93853 13.0853 -4.30828
upperneck -11.7765 16.8766 -20.3329
head -0.600923 8.64807 -4.91373
rclavicle -3.02153e-014 1.78906e-014
rhumerus -29.0586 4.05941 -88.3145
rradius 95.4986
rwrist -2.21681
rhand -51.8595 -243.413
rfingers 7.12502
rthumb -24.3729 -214.943
lclavicle -3.02153e-014 1.78906e-014
lhumerus 10.1371 -30.3934 58.1358
lradius 84.4234
lwrist 22.2067
lhand -59.3549 471.217
lfingers 7.12502
lthumb -31.5375 276.081
rfemur -22.4092 0.422495 13.3774
rtibia 34.8296
rfoot -19.3443 -0.173785
rtoes -4.92606
lfemur 308.561 45.207 347.059
ltibia 96.6152
lfoot -18.0124 -6.68221
ltoes -49.1045
1927
root -23.2723 5.69144 7.64427 -93.2782 -26.806 538.539
lowerback 3.06818 4.49126 -8.20448
upperback 4.50546 5.48236 5.72809
thorax 1.65377 2.33732 10.5679
lowerneck -9.20289 13.0924 -4.13462
upperneck -10.8315 17.0656 -20.6007
head -0.214158 8.6649 -4.93425
rclavicle 2.54444e-014 2.46493e-014
rhumerus -28.2786 3.82767 -87.9859
rradius 93.6247
rwrist -1.47705
rhand -52.0695 -244.256
rfingers 7.12502
rthumb -24.5741 -215.813
lclavicle 2.54444e-014 2.46493e-014
lhumerus 10.5938 -30.8794 58.6008
lradius 82.8246
lwrist 22.4912
lhand -59.2357 471.842
lfingers 7.12502
lthumb -31.424 275.478
rfemur -22.132 -0.637081 14.2405
rtibia 35.6889
rfoot -19.3552 -1.21264
rtoes -3.7275
lfemur 310.46 44.6007 345.719
ltibia 97.1701
lfoot -17.8479 -6.76486
ltoes -48.5005
